<?xml version="1.0" standalone="no"?>
<!DOCTYPE svg PUBLIC "-//W3C//DTD SVG 20010904//EN"
 "http://www.w3.org/TR/2001/REC-SVG-20010904/DTD/svg10.dtd">
<svg version="1.0" xmlns="http://www.w3.org/2000/svg"
 width="512.000000pt" height="512.000000pt" viewBox="0 0 512.000000 512.000000"
 preserveAspectRatio="xMidYMid meet">

<g transform="translate(0.000000,512.000000) scale(0.100000,-0.100000)"
fill="#000000" stroke="none">
<path d="M2422 4869 c-110 -18 -209 -63 -559 -252 -197 -107 -639 -346 -983
-532 -344 -186 -640 -349 -659 -363 -65 -48 -62 1 -59 -1010 l4 -917 22 -75
c60 -196 172 -353 327 -460 52 -36 1629 -903 1720 -946 38 -18 97 -41 130 -49
72 -20 243 -29 305 -18 l45 9 5 1029 5 1029 50 12 c76 20 203 87 1065 562
l795 438 3 -719 c2 -794 3 -792 -61 -911 -67 -127 -86 -140 -722 -489 -319
-176 -592 -330 -607 -345 -56 -52 -62 -144 -14 -206 32 -42 101 -71 149 -62
40 7 1155 619 1243 681 143 102 246 253 306 448 22 72 23 75 26 990 3 1017 7
960 -62 1011 -67 50 -1997 1087 -2068 1110 -130 44 -276 56 -406 35z m258
-324 c47 -11 144 -58 348 -168 155 -83 282 -154 282 -157 0 -4 -1188 -697
-1711 -998 l-127 -73 -405 223 c-223 123 -403 226 -401 230 2 3 43 27 92 53
48 26 429 232 847 458 550 298 778 416 825 429 81 21 166 22 250 3z m1380
-725 c219 -118 399 -217 400 -220 1 -12 -1720 -950 -1769 -964 -70 -20 -192
-20 -262 0 -52 15 -619 320 -619 333 1 9 1833 1072 1842 1069 5 -2 188 -100
408 -218z m-2745 -951 c919 -505 921 -507 1009 -535 l71 -22 3 -862 c2 -799 1
-862 -14 -856 -10 4 -222 120 -473 258 -251 138 -616 339 -811 446 -195 107
-379 211 -409 230 -59 39 -119 110 -157 184 -53 105 -54 115 -54 896 l0 723
43 -25 c23 -13 380 -210 792 -437z"/>
</g>
</svg>
